PathFileType	4	(X/Y/Z)	43_1_42_p0_0-188.trc
DataRate	CameraRate	NumFrames	NumMarkers	Units	OrigDataRate	OrigDataStartFrame	OrigNumFrames
59.0	59.0	5	27	m	59.0	165	189
Frame#	Time	RHip			RKnee			RAnkle			RBigToe			RSmallToe			RHeel			LHip			LKnee			LAnkle			LBigToe			LSmallToe			LHeel			Neck			Head			Nose			RShoulder			RElbow			RWrist			RThumb			RIndex			RPinky			LShoulder			LElbow			LWrist			LThumb			LIndex			LPinky			
		X1	Y1	Z1	X2	Y2	Z2	X3	Y3	Z3	X4	Y4	Z4	X5	Y5	Z5	X6	Y6	Z6	X7	Y7	Z7	X8	Y8	Z8	X9	Y9	Z9	X10	Y10	Z10	X11	Y11	Z11	X12	Y12	Z12	X13	Y13	Z13	X14	Y14	Z14	X15	Y15	Z15	X16	Y16	Z16	X17	Y17	Z17	X18	Y18	Z18	X19	Y19	Z19	X20	Y20	Z20	X21	Y21	Z21	X22	Y22	Z22	X23	Y23	Z23	X24	Y24	Z24	X25	Y25	Z25	X26	Y26	Z26	X27	Y27	Z27	
165	2.7966101694915255	0.2276987578958617	0.41875521478994937	1.137946908573213	0.18593411271238622	0.5023770672778233	1.6062182076964286	0.16848345164783107	0.5260635799712978	1.9747735825309343	0.1373918402027382	0.37647243131660735	2.0041777558835308	0.21219269786518874	0.3905365536076528	2.0046862895776685	0.1434714257156005	0.5998974399784833	2.0367279001443594	0.014718602817064308	0.44124792049265976	1.1545365922459745	-0.020030865669527467	0.4893745144965671	1.5810484558114661	-0.04736903938447556	0.5144012274097497	1.981814424416196	-0.01690864491119255	0.3474751287500163	1.9774159475982722	-0.07526728026949414	0.38522334458675833	1.990741031282387	-0.03800512286144278	0.5563630642062752	2.0413674727024333	0.1681293315925382	0.4514104042065797	0.5701474198832253	0.17323538902589292	0.4508204258315276	0.32359516709596264	0.16340594010718854	0.37124049088328553	0.46178122159391904	0.3021388092894195	0.45139644031120724	0.669374131015082	0.3317809297749346	0.3978317490045382	0.9401247210593502	0.19860282879039223	0.27929703252945487	1.135634980418157	0.10974077693665013	0.25168404247995657	1.2197654644407372	0.1053110196722209	0.2985636177295581	1.2459320098621112	0.11970967876163544	0.31604021564228757	1.2574621273395505	-0.0010112586343914308	0.481562885247126	0.6589491337525661	-0.04485516598976877	0.3900274242091236	0.9184889117960583	0.06599092193930567	0.29311549545481785	1.133022741163269	0.13320353738480878	0.2810876306709785	1.218946739862954	0.12762917693075732	0.2771260991112611	1.2410754017431307	0.10850950056331818	0.28708444222521295	1.2418385059799313
166	2.8135593220338984	0.22768643505864958	0.41868972713314473	1.1379319379221944	0.18753118428741253	0.5158880822772625	1.612480378087728	0.16843644807923594	0.526128475326877	1.9746763319766234	0.13859935965608053	0.38813017384679593	2.0116912843506	0.21222009127194655	0.390683969116835	2.0048564333469288	0.14185565543140885	0.5852820566996447	2.0279739970616775	0.015502909928871758	0.4411714984405565	1.1508017321035997	-0.021395854116178777	0.4895429090674196	1.5855396312811663	-0.047402337301442325	0.5145989687251277	1.9818874329026384	-0.0169918161441243	0.34766218127127657	1.9775269482190914	-0.0752852646711973	0.38526680423521	1.9907800115778973	-0.037916956770402445	0.5565587927491409	2.0411571771131993	0.16813074317133028	0.45143096532925137	0.5701528404113938	0.17325704377367432	0.4507702949958353	0.32365195722706347	0.16334317970832743	0.3713625655857336	0.4618587613760175	0.3021492610200903	0.4513030682884292	0.6693153692869516	0.3372200945647997	0.3861800490389386	0.9370648103033782	0.1986226706336097	0.279247693135964	1.1355487627233993	0.10982292422389794	0.2514624169218342	1.2195986943528538	0.10457272953415571	0.2870351313658448	1.2416197240538311	0.12096217959876943	0.3273227873985887	1.2616357019721214	-0.0010629216658166925	0.4808096453675508	0.6622122577070798	-0.044901630435067605	0.38995174784383824	0.918481040865397	0.06495983914529288	0.28207871132486784	1.1293804414143664	0.14472772675065584	0.28297197615307607	1.219122839760059	0.13260088087142718	0.28999283942520726	1.2457788619326884	0.10738359489363639	0.2760830226525946	1.2378519925999505
167	2.830508474576271	0.23404964864009836	0.40635907303853014	1.1337194649602165	0.18755838444650091	0.5150671102539102	1.61225042548707	0.16853851053091312	0.5258711596612597	1.974671295589214	0.1374549371320759	0.3765765040579265	2.004302842693697	0.2122606016101117	0.39048473374541254	2.004730127166011	0.14208666456208577	0.5855540684733905	2.028300675153776	0.011531620217845552	0.4373638447510857	1.1568314965896207	-0.02363932109223872	0.48654649413076356	1.5801314734461112	-0.047126220498318314	0.5161944324886618	1.9878969527003565	-0.0168009631211817	0.3471086428597636	1.9771717297087643	-0.07526543453958418	0.3852164515306492	1.9907436740964615	-0.03787809372842322	0.5562830241254831	2.0413001953685805	0.1680433276107083	0.45137897902905155	0.5701853418348992	0.17312402220715645	0.450169250953476	0.32679340387377115	0.16333044024961255	0.3714644784095453	0.46190549158763616	0.30217177025985237	0.451234352249232	0.6693203108776932	0.33709526567876663	0.3850928715277702	0.9331304484196135	0.20242575738703802	0.2818482779002119	1.1362397538242641	0.1045510935110216	0.261664696643533	1.2204262296060227	0.10598371470479025	0.2996605978845365	1.2428291127965982	0.12157347121413603	0.32787760879352285	1.2617596508567173	-0.001115879115350045	0.48074664039542925	0.6622073472565755	-0.044986842850206425	0.3897812804610261	0.9183550392548677	0.07173590119200983	0.2711624933001972	1.1253936079375975	0.14816940723211514	0.28486216393588154	1.219409328252948	0.13497462203455757	0.28023929509174755	1.2375547891967116	0.10755424024988196	0.2750238020279156	1.2337353932430277
168	2.847457627118644	0.23401252905361106	0.4062703127164218	1.1336463963518424	0.18756985652652128	0.51523510582226	1.6124466068034944	0.16854473093385977	0.5256735804641952	1.974669521156206	0.1373219337295104	0.3764148668865976	2.00374439449647	0.21094299869373068	0.37879631415185	1.997246336920669	0.15363447402010738	0.5720949075027819	2.019168398543911	0.015457324700458432	0.44092507139733433	1.150655228412098	-0.02802436193968631	0.5025353529509542	1.5877308146824318	-0.047329486358470216	0.5146454298736739	1.9818546100623988	-0.016907248942639473	0.3452605398885653	1.971679555077771	-0.07577700354870992	0.38682853356424735	1.9869472021406183	-0.037723029034624676	0.5563790258684093	2.0409479252944034	0.16800959229651685	0.4514932841399268	0.5701962287351781	0.1730772723664415	0.4499296350915407	0.32689789914827105	0.16331755002034826	0.3715804922420376	0.4619439550775045	0.3017550951930659	0.4510455284616551	0.6723963171909435	0.3315435051781626	0.39701350929989554	0.9360979931769073	0.20247628496224312	0.28187236735242255	1.1363119074479104	0.11171023844114426	0.2635179230482161	1.220668746226643	0.1063182525524922	0.2995652518948345	1.2427288417533133	0.1213424417686449	0.3273704320020463	1.2613221497398464	-0.0013475652303052454	0.48043029401089365	0.6621983178813746	-0.04471982990835054	0.38819907685955096	0.914072741449417	0.07646982134894732	0.28318929759537403	1.13279475840074	0.15579332724112993	0.27393881837272877	1.2109018075403752	0.14265450814253608	0.28125202064556576	1.2335080635914553	0.10985866547390885	0.2967741545278634	1.2421496622075425
169	2.864406779661017	0.23408158116948288	0.4082506357969357	1.134890158553816	0.18780576440527771	0.5156261616824664	1.6126548117927446	0.16857402637232885	0.5257591807290649	1.9746586188199082	0.13734317622209175	0.3765279833423687	2.0038839872738765	0.2109595817111127	0.37883445608973637	1.997263757087797	0.14197533714257463	0.5847968053303518	2.0279046746904315	0.01553116537525126	0.44127541130117875	1.151034422748188	-0.023652139411316112	0.48677543213229285	1.580178226814212	-0.04576639762236395	0.5144060113590734	1.9770045214280882	-0.01672099943499865	0.3453525772586487	1.9716503005345223	-0.07575879241413609	0.38689780358857584	1.9869637194020149	-0.037750428638472416	0.5562823824878026	2.0408443919548374	0.16802031719052818	0.4525018807782781	0.5740338794582232	0.17313314560739873	0.4495786495558232	0.3301924765642713	0.16329239624060343	0.3716038290384849	0.4619969780365712	0.3017397990939211	0.45106422407231594	0.672619833352858	0.3316738547124603	0.3979168240494333	0.9402482299680857	0.20251374201232375	0.28178556726497045	1.136099540556886	0.11209154067740286	0.2745146696162294	1.2281660310916032	0.10755129081017871	0.3109479791769332	1.2470548098237748	0.12128903221899924	0.3259677133066465	1.255845791981155	-0.0013589062393756695	0.48075344433984646	0.6623745767946768	-0.04491178958047121	0.38943461465142903	0.9183233184244772	0.07661701936066813	0.2830067896940589	1.132750950275059	0.16615408114348557	0.2645551079199201	1.2069648860999058	0.153556666239929	0.27081744601700947	1.2320156881460647	0.11488483645135954	0.27492635334149435	1.2337663537402628
